# xmcd
#
# Track frame offsets: 
#        150
#        20205
#        30665
#        43914
#        58711
#        73483
#        85872
#        100638
#        122214
#        146058
#        160229
#        177105
#        194358
#        217384
#        237326
#        256535
#        282204
#        298363
#        311297
#
# Disc length: 4511 seconds
#
# Revision: 0
# Processed by: cddbd v1.5PL3 Copyright (c) Steve Scherf et al.
# Submitted via: ExactAudioCopy v0.95a1
#
DISCID=28119d13
DTITLE=Various Artist - Camp Songs Cookbook [Vol. 1]
DYEAR=1900
DGENRE=Country
TTITLE0=John Prine - Dear Abby
TTITLE1=John Prine - Grandpa Was A Carpenter
TTITLE2=John Prine - Flag Decal
TTITLE3=John Prine - Illegal Smile
TTITLE4=John Prine - Paradise
TTITLE5=John Denver - Take Me Home Country Roads
TTITLE6=John Denver - Rocky Mountain High
TTITLE7=John Denver - Sunshine On My Shoulders
TTITLE8=Alison Krauss - Let Me Touch You For A While
TTITLE9=Alison Krauss - The Lucky One
TTITLE10=Alison Krauss - Every Time You Say Goodbye
TTITLE11=Alison Krauss - Baby, Now That I've Found You
TTITLE12=Alison Krauss - When You Say Nothing At All
TTITLE13=Jimmy Buffet - Margaritaville
TTITLE14=Bob Marley - Stir It Up
TTITLE15=Bob Marley - Roots Rock Reggae
TTITLE16=Bob Dylan - Blowing In The Wind
TTITLE17=Bob Dylan - Shelter From The Storm
TTITLE18=Unknown
EXTD=
EXTT0=
EXTT1=
EXTT2=
EXTT3=
EXTT4=
EXTT5=
EXTT6=
EXTT7=
EXTT8=
EXTT9=
EXTT10=
EXTT11=
EXTT12=
EXTT13=
EXTT14=
EXTT15=
EXTT16=
EXTT17=
EXTT18=
PLAYORDER=
